<svg width="49" height="32" viewBox="0 0 49 32" fill="none" xmlns="http://www.w3.org/2000/svg">
<path d="M8.29286 15.293C7.90236 15.6835 7.90238 16.3167 8.29292 16.7072L14.6571 23.0709C15.0477 23.4614 15.6808 23.4614 16.0714 23.0708C16.4619 22.6803 16.4618 22.0471 16.0713 21.6566L10.4142 16L16.0708 10.3429C16.4613 9.95236 16.4613 9.31919 16.0708 8.92868C15.6802 8.53817 15.0471 8.5382 14.6566 8.92874L8.29286 15.293ZM33.025 16.0003L33.025 15.0003L33.025 15.0003L33.025 16.0003ZM40.7071 16.7071C41.0976 16.3165 41.0976 15.6834 40.7071 15.2929L34.3429 8.92916C33.9523 8.53865 33.3192 8.53868 32.9286 8.92922C32.5381 9.31976 32.5382 9.95292 32.9287 10.3434L38.5858 16.0001L32.9292 21.6571C32.5387 22.0477 32.5387 22.6808 32.9292 23.0714C33.3198 23.4619 33.9529 23.4618 34.3434 23.0713L40.7071 16.7071ZM22.95 14.9995L8.99996 15L9.00004 17L22.9501 16.9995L22.95 14.9995ZM26.05 17.0006L33.025 17.0003L33.025 15.0003L26.0499 15.0006L26.05 17.0006ZM33.025 17.0003L40 17L40 15L33.025 15.0003L33.025 17.0003Z" fill="black" fill-opacity="0.2"/>
<rect x="0.5" y="2.5" width="48" height="28" rx="13.5" stroke="black" stroke-opacity="0.25"/>
<path d="M40.7071 16.7071C41.0976 16.3166 41.0976 15.6834 40.7071 15.2929L34.3431 8.92893C33.9526 8.53841 33.3195 8.53841 32.9289 8.92893C32.5384 9.31946 32.5384 9.95262 32.9289 10.3431L38.5858 16L32.9289 21.6569C32.5384 22.0474 32.5384 22.6805 32.9289 23.0711C33.3195 23.4616 33.9526 23.4616 34.3431 23.0711L40.7071 16.7071ZM27 17L40 17V15L27 15V17Z" fill="black"/>
<line x1="24.5" y1="2" x2="24.5" y2="31" stroke="black" stroke-opacity="0.2"/>
</svg>
