<svg width="3319" height="840" viewBox="0 0 3319 840" fill="none" xmlns="http://www.w3.org/2000/svg">
<path d="M212.22 115.222L159.165 165.633L106.11 216.044L53.0549 165.633L0 115.222L53.0549 64.8112L106.11 14.4002L159.165 64.8112L212.22 115.222Z" fill="#3755F7"/>
<path d="M404.186 204.502L351.131 254.913L298.076 305.324L245.021 254.913L191.967 204.502L245.021 154.091L298.076 103.68L351.131 154.091L404.186 204.502Z" fill="#3755F7"/>
<path d="M212.22 292.778L159.165 343.189L106.11 393.6L53.0549 343.189L0 292.778L53.0549 242.367L106.11 191.956L159.165 242.367L212.22 292.778Z" fill="#3755F7"/>
<path d="M404.186 382.058L351.131 432.469L298.076 482.88L245.021 432.469L191.967 382.058L245.021 331.647L298.076 281.236L351.131 331.647L404.186 382.058Z" fill="#3755F7"/>
<mask id="path-5-outside-1_3_27" maskUnits="userSpaceOnUse" x="1744.63" y="217.24" width="112" height="216" fill="black">
<rect fill="white" x="1744.63" y="217.24" width="112" height="216"/>
<path d="M1749.39 429.24V224.695H1779.75V255.59H1781.88C1785.61 245.469 1792.36 237.257 1802.12 230.954C1811.89 224.65 1822.9 221.499 1835.15 221.499C1837.46 221.499 1840.34 221.543 1843.81 221.632C1847.27 221.721 1849.89 221.854 1851.66 222.031V253.992C1850.6 253.725 1848.16 253.326 1844.34 252.793C1840.61 252.172 1836.66 251.861 1832.49 251.861C1822.54 251.861 1813.67 253.947 1805.85 258.12C1798.13 262.204 1792 267.885 1787.48 275.165C1783.04 282.356 1780.82 290.568 1780.82 299.801V429.24H1749.39Z"/>
</mask>
<path d="M1749.39 429.24V224.695H1779.75V255.59H1781.88C1785.61 245.469 1792.36 237.257 1802.12 230.954C1811.89 224.65 1822.9 221.499 1835.15 221.499C1837.46 221.499 1840.34 221.543 1843.81 221.632C1847.27 221.721 1849.89 221.854 1851.66 222.031V253.992C1850.6 253.725 1848.16 253.326 1844.34 252.793C1840.61 252.172 1836.66 251.861 1832.49 251.861C1822.54 251.861 1813.67 253.947 1805.85 258.12C1798.13 262.204 1792 267.885 1787.48 275.165C1783.04 282.356 1780.82 290.568 1780.82 299.801V429.24H1749.39Z" fill="black"/>
<path d="M1749.39 429.24H1745.39V433.24H1749.39V429.24ZM1749.39 224.695V220.695H1745.39V224.695H1749.39ZM1779.75 224.695H1783.75V220.695H1779.75V224.695ZM1779.75 255.59H1775.75V259.59H1779.75V255.59ZM1781.88 255.59V259.59H1784.67L1785.64 256.972L1781.88 255.59ZM1802.12 230.954L1799.96 227.593L1799.96 227.593L1802.12 230.954ZM1851.66 222.031H1855.66V218.411L1852.06 218.051L1851.66 222.031ZM1851.66 253.992L1850.69 257.872L1855.66 259.115V253.992H1851.66ZM1844.34 252.793L1843.68 256.739L1843.73 256.747L1843.79 256.755L1844.34 252.793ZM1805.85 258.12L1807.72 261.656L1807.73 261.652L1807.74 261.648L1805.85 258.12ZM1787.48 275.165L1784.08 273.053L1784.07 273.064L1787.48 275.165ZM1780.82 429.24V433.24H1784.82V429.24H1780.82ZM1753.39 429.24V224.695H1745.39V429.24H1753.39ZM1749.39 228.695H1779.75V220.695H1749.39V228.695ZM1775.75 224.695V255.59H1783.75V224.695H1775.75ZM1779.75 259.59H1781.88V251.59H1779.75V259.59ZM1785.64 256.972C1789.04 247.73 1795.2 240.186 1804.29 234.314L1799.96 227.593C1789.52 234.328 1782.18 243.208 1778.13 254.207L1785.64 256.972ZM1804.29 234.314C1813.38 228.451 1823.62 225.499 1835.15 225.499V217.499C1822.17 217.499 1810.4 220.849 1799.96 227.593L1804.29 234.314ZM1835.15 225.499C1837.41 225.499 1840.26 225.542 1843.7 225.631L1843.91 217.633C1840.43 217.544 1837.5 217.499 1835.15 217.499V225.499ZM1843.7 225.631C1847.14 225.719 1849.64 225.849 1851.26 226.012L1852.06 218.051C1850.13 217.859 1847.4 217.723 1843.91 217.633L1843.7 225.631ZM1847.66 222.031V253.992H1855.66V222.031H1847.66ZM1852.63 250.111C1851.32 249.783 1848.65 249.356 1844.89 248.832L1843.79 256.755C1847.66 257.296 1849.88 257.668 1850.69 257.872L1852.63 250.111ZM1845 248.848C1841.03 248.186 1836.86 247.861 1832.49 247.861V255.861C1836.46 255.861 1840.19 256.157 1843.68 256.739L1845 248.848ZM1832.49 247.861C1821.97 247.861 1812.43 250.073 1803.97 254.592L1807.74 261.648C1814.9 257.822 1823.12 255.861 1832.49 255.861V247.861ZM1803.98 254.584C1795.65 258.992 1788.99 265.16 1784.08 273.053L1790.87 277.278C1795.02 270.611 1800.61 265.415 1807.72 261.656L1803.98 254.584ZM1784.07 273.064C1779.21 280.945 1776.82 289.897 1776.82 299.801H1784.82C1784.82 291.239 1786.87 283.768 1790.88 277.266L1784.07 273.064ZM1776.82 299.801V429.24H1784.82V299.801H1776.82ZM1780.82 425.24H1749.39V433.24H1780.82V425.24Z" fill="black" mask="url(#path-5-outside-1_3_27)"/>
<mask id="path-7-outside-2_3_27" maskUnits="userSpaceOnUse" x="1485.04" y="193.16" width="219" height="248" fill="black">
<rect fill="white" x="1485.04" y="193.16" width="219" height="248"/>
<path d="M1594.81 436.99C1573.89 436.99 1555.52 432.009 1539.73 422.048C1524.03 412.087 1511.76 398.152 1502.9 380.243C1494.15 362.333 1489.77 341.405 1489.77 317.458C1489.77 293.311 1494.15 272.232 1502.9 254.222C1511.76 236.211 1524.03 222.226 1539.73 212.265C1555.52 202.304 1573.89 197.324 1594.81 197.324C1615.74 197.324 1634.05 202.304 1649.75 212.265C1665.55 222.226 1677.82 236.211 1686.58 254.222C1695.43 272.232 1699.86 293.311 1699.86 317.458C1699.86 341.405 1695.43 362.333 1686.58 380.243C1677.82 398.152 1665.55 412.087 1649.75 422.048C1634.05 432.009 1615.74 436.99 1594.81 436.99ZM1594.81 404.994C1610.71 404.994 1623.79 400.919 1634.05 392.769C1644.32 384.619 1651.91 373.904 1656.84 360.623C1661.77 347.341 1664.24 332.953 1664.24 317.458C1664.24 301.964 1661.77 287.525 1656.84 274.143C1651.91 260.762 1644.32 249.945 1634.05 241.695C1623.79 233.444 1610.71 229.319 1594.81 229.319C1578.92 229.319 1565.84 233.444 1555.57 241.695C1545.31 249.945 1537.71 260.762 1532.78 274.143C1527.85 287.525 1525.39 301.964 1525.39 317.458C1525.39 332.953 1527.85 347.341 1532.78 360.623C1537.71 373.904 1545.31 384.619 1555.57 392.769C1565.84 400.919 1578.92 404.994 1594.81 404.994Z"/>
</mask>
<path d="M1594.81 436.99C1573.89 436.99 1555.52 432.009 1539.73 422.048C1524.03 412.087 1511.76 398.152 1502.9 380.243C1494.15 362.333 1489.77 341.405 1489.77 317.458C1489.77 293.311 1494.15 272.232 1502.9 254.222C1511.76 236.211 1524.03 222.226 1539.73 212.265C1555.52 202.304 1573.89 197.324 1594.81 197.324C1615.74 197.324 1634.05 202.304 1649.75 212.265C1665.55 222.226 1677.82 236.211 1686.58 254.222C1695.43 272.232 1699.86 293.311 1699.86 317.458C1699.86 341.405 1695.43 362.333 1686.58 380.243C1677.82 398.152 1665.55 412.087 1649.75 422.048C1634.05 432.009 1615.74 436.99 1594.81 436.99ZM1594.81 404.994C1610.71 404.994 1623.79 400.919 1634.05 392.769C1644.32 384.619 1651.91 373.904 1656.84 360.623C1661.77 347.341 1664.24 332.953 1664.24 317.458C1664.24 301.964 1661.77 287.525 1656.84 274.143C1651.91 260.762 1644.32 249.945 1634.05 241.695C1623.79 233.444 1610.71 229.319 1594.81 229.319C1578.92 229.319 1565.84 233.444 1555.57 241.695C1545.31 249.945 1537.71 260.762 1532.78 274.143C1527.85 287.525 1525.39 301.964 1525.39 317.458C1525.39 332.953 1527.85 347.341 1532.78 360.623C1537.71 373.904 1545.31 384.619 1555.57 392.769C1565.84 400.919 1578.92 404.994 1594.81 404.994Z" fill="black"/>
<path d="M1539.73 422.048L1537.58 425.426L1537.59 425.432L1539.73 422.048ZM1502.9 380.243L1499.31 381.999L1499.31 382.007L1499.32 382.015L1502.9 380.243ZM1502.9 254.222L1499.31 252.457L1499.31 252.465L1499.3 252.473L1502.9 254.222ZM1539.73 212.265L1537.59 208.881L1537.58 208.888L1539.73 212.265ZM1649.75 212.265L1647.61 215.642L1647.62 215.648L1649.75 212.265ZM1686.58 254.222L1682.98 255.97L1682.98 255.978L1682.99 255.986L1686.58 254.222ZM1686.58 380.243L1682.99 378.47L1682.99 378.478L1682.98 378.486L1686.58 380.243ZM1649.75 422.048L1647.62 418.665L1647.61 418.671L1649.75 422.048ZM1634.05 392.769L1631.57 389.637L1631.57 389.637L1634.05 392.769ZM1656.84 360.623L1660.59 362.015L1660.59 362.015L1656.84 360.623ZM1656.84 274.143L1660.6 272.761L1660.6 272.761L1656.84 274.143ZM1634.05 241.695L1636.56 238.577L1636.56 238.577L1634.05 241.695ZM1555.57 241.695L1553.07 238.577L1553.07 238.577L1555.57 241.695ZM1532.78 274.143L1529.03 272.761L1529.03 272.761L1532.78 274.143ZM1532.78 360.623L1529.03 362.015L1529.03 362.015L1532.78 360.623ZM1555.57 392.769L1558.06 389.637L1558.06 389.637L1555.57 392.769ZM1594.81 432.99C1574.55 432.99 1556.94 428.176 1541.86 418.665L1537.59 425.432C1554.1 435.843 1573.22 440.99 1594.81 440.99V432.99ZM1541.87 418.671C1526.84 409.132 1515.04 395.773 1506.49 378.47L1499.32 382.015C1508.47 400.531 1521.22 415.043 1537.58 425.426L1541.87 418.671ZM1506.5 378.486C1498.06 361.223 1493.77 340.917 1493.77 317.458H1485.77C1485.77 341.893 1490.24 363.443 1499.31 381.999L1506.5 378.486ZM1493.77 317.458C1493.77 293.794 1498.06 273.335 1506.5 255.97L1499.3 252.473C1490.24 271.129 1485.77 292.828 1485.77 317.458H1493.77ZM1506.49 255.986C1515.05 238.582 1526.85 225.178 1541.87 215.642L1537.58 208.888C1521.22 219.274 1508.46 233.841 1499.31 252.457L1506.49 255.986ZM1541.86 215.648C1556.94 206.138 1574.55 201.324 1594.81 201.324V193.324C1573.22 193.324 1554.1 198.47 1537.59 208.881L1541.86 215.648ZM1594.81 201.324C1615.08 201.324 1632.63 206.138 1647.61 215.642L1651.89 208.888C1635.48 198.47 1616.4 193.324 1594.81 193.324V201.324ZM1647.62 215.648C1662.74 225.183 1674.53 238.58 1682.98 255.97L1690.17 252.473C1681.12 233.843 1668.36 219.269 1651.88 208.881L1647.62 215.648ZM1682.99 255.986C1691.52 273.347 1695.86 293.8 1695.86 317.458H1703.86C1703.86 292.822 1699.34 271.117 1690.17 252.457L1682.99 255.986ZM1695.86 317.458C1695.86 340.911 1691.52 361.21 1682.99 378.47L1690.16 382.015C1699.34 363.456 1703.86 341.899 1703.86 317.458H1695.86ZM1682.98 378.486C1674.53 395.775 1662.74 409.127 1647.62 418.665L1651.88 425.432C1668.35 415.048 1681.11 400.529 1690.17 381.999L1682.98 378.486ZM1647.61 418.671C1632.63 428.176 1615.08 432.99 1594.81 432.99V440.99C1616.4 440.99 1635.48 435.843 1651.89 425.426L1647.61 418.671ZM1594.81 408.994C1611.42 408.994 1625.43 404.725 1636.54 395.902L1631.57 389.637C1622.15 397.113 1610.01 400.994 1594.81 400.994V408.994ZM1636.54 395.902C1647.42 387.261 1655.43 375.923 1660.59 362.015L1653.09 359.23C1648.4 371.885 1641.21 381.978 1631.57 389.637L1636.54 395.902ZM1660.59 362.015C1665.7 348.248 1668.24 333.384 1668.24 317.458H1660.24C1660.24 332.523 1657.84 346.435 1653.09 359.23L1660.59 362.015ZM1668.24 317.458C1668.24 301.533 1665.7 286.622 1660.6 272.761L1653.09 275.526C1657.84 288.429 1660.24 302.395 1660.24 317.458H1668.24ZM1660.6 272.761C1655.44 258.757 1647.44 247.32 1636.56 238.577L1631.55 244.812C1641.2 252.571 1648.39 262.767 1653.09 275.526L1660.6 272.761ZM1636.56 238.577C1625.45 229.644 1611.43 225.319 1594.81 225.319V233.319C1610 233.319 1622.13 237.245 1631.55 244.812L1636.56 238.577ZM1594.81 225.319C1578.2 225.319 1564.18 229.644 1553.07 238.577L1558.08 244.812C1567.49 237.245 1579.63 233.319 1594.81 233.319V225.319ZM1553.07 238.577C1542.19 247.32 1534.19 258.757 1529.03 272.761L1536.54 275.526C1541.24 262.767 1548.43 252.571 1558.08 244.812L1553.07 238.577ZM1529.03 272.761C1523.92 286.622 1521.39 301.533 1521.39 317.458H1529.39C1529.39 302.395 1531.78 288.429 1536.54 275.526L1529.03 272.761ZM1521.39 317.458C1521.39 333.384 1523.92 348.248 1529.03 362.015L1536.53 359.23C1531.78 346.435 1529.39 332.523 1529.39 317.458H1521.39ZM1529.03 362.015C1534.2 375.923 1542.21 387.261 1553.09 395.902L1558.06 389.637C1548.42 381.978 1541.23 371.885 1536.53 359.23L1529.03 362.015ZM1553.09 395.902C1564.2 404.725 1578.21 408.994 1594.81 408.994V400.994C1579.62 400.994 1567.48 397.113 1558.06 389.637L1553.09 395.902Z" fill="black" mask="url(#path-7-outside-2_3_27)"/>
<mask id="path-9-outside-3_3_27" maskUnits="userSpaceOnUse" x="1361.87" y="159" width="125" height="279" fill="black">
<rect fill="white" x="1361.87" y="159" width="125" height="279"/>
<path d="M1477.87 215.545V243.599H1366.21V215.545H1477.87ZM1398.76 163.926H1431.86V369.281C1431.86 378.633 1433.22 385.646 1435.93 390.322C1438.73 394.904 1442.29 397.99 1446.59 399.58C1450.98 401.076 1455.61 401.824 1460.47 401.824C1464.12 401.824 1467.11 401.637 1469.45 401.263C1471.79 400.795 1473.66 400.421 1475.06 400.141L1481.8 429.878C1479.55 430.719 1476.42 431.561 1472.4 432.403C1468.38 433.338 1463.28 433.805 1457.11 433.805C1447.76 433.805 1438.59 431.795 1429.61 427.774C1420.73 423.753 1413.34 417.628 1407.45 409.398C1401.65 401.169 1398.76 390.789 1398.76 378.259V163.926Z"/>
</mask>
<path d="M1477.87 215.545V243.599H1366.21V215.545H1477.87ZM1398.76 163.926H1431.86V369.281C1431.86 378.633 1433.22 385.646 1435.93 390.322C1438.73 394.904 1442.29 397.99 1446.59 399.58C1450.98 401.076 1455.61 401.824 1460.47 401.824C1464.12 401.824 1467.11 401.637 1469.45 401.263C1471.79 400.795 1473.66 400.421 1475.06 400.141L1481.8 429.878C1479.55 430.719 1476.42 431.561 1472.4 432.403C1468.38 433.338 1463.28 433.805 1457.11 433.805C1447.76 433.805 1438.59 431.795 1429.61 427.774C1420.73 423.753 1413.34 417.628 1407.45 409.398C1401.65 401.169 1398.76 390.789 1398.76 378.259V163.926Z" fill="black"/>
<path d="M1477.87 215.545H1481.87V211.545H1477.87V215.545ZM1477.87 243.599V247.599H1481.87V243.599H1477.87ZM1366.21 243.599H1362.21V247.599H1366.21V243.599ZM1366.21 215.545V211.545H1362.21V215.545H1366.21ZM1398.76 163.926V159.926H1394.76V163.926H1398.76ZM1431.86 163.926H1435.86V159.926H1431.86V163.926ZM1435.93 390.322L1432.47 392.329L1432.49 392.37L1432.52 392.41L1435.93 390.322ZM1446.59 399.58L1445.2 403.332L1445.25 403.349L1445.3 403.366L1446.59 399.58ZM1469.45 401.263L1470.08 405.213L1470.16 405.2L1470.24 405.185L1469.45 401.263ZM1475.06 400.141L1478.96 399.257L1478.1 395.453L1474.28 396.218L1475.06 400.141ZM1481.8 429.878L1483.2 433.623L1486.47 432.398L1485.7 428.995L1481.8 429.878ZM1472.4 432.403L1471.58 428.488L1471.53 428.497L1471.49 428.507L1472.4 432.403ZM1429.61 427.774L1427.97 431.418L1427.97 431.421L1427.98 431.424L1429.61 427.774ZM1407.45 409.398L1404.18 411.702L1404.19 411.715L1404.2 411.727L1407.45 409.398ZM1473.87 215.545V243.599H1481.87V215.545H1473.87ZM1477.87 239.599H1366.21V247.599H1477.87V239.599ZM1370.21 243.599V215.545H1362.21V243.599H1370.21ZM1366.21 219.545H1477.87V211.545H1366.21V219.545ZM1398.76 167.926H1431.86V159.926H1398.76V167.926ZM1427.86 163.926V369.281H1435.86V163.926H1427.86ZM1427.86 369.281C1427.86 378.888 1429.23 386.746 1432.47 392.329L1439.39 388.315C1437.2 384.546 1435.86 378.377 1435.86 369.281H1427.86ZM1432.52 392.41C1435.71 397.622 1439.92 401.379 1445.2 403.332L1447.97 395.828C1444.65 394.601 1441.76 392.186 1439.34 388.233L1432.52 392.41ZM1445.3 403.366C1450.13 405.01 1455.19 405.824 1460.47 405.824V397.824C1456.03 397.824 1451.84 397.141 1447.88 395.793L1445.3 403.366ZM1460.47 405.824C1464.23 405.824 1467.46 405.633 1470.08 405.213L1468.82 397.313C1466.77 397.641 1464.01 397.824 1460.47 397.824V405.824ZM1470.24 405.185C1472.57 404.718 1474.44 404.343 1475.85 404.063L1474.28 396.218C1472.88 396.499 1471 396.873 1468.67 397.34L1470.24 405.185ZM1471.16 401.024L1477.89 430.761L1485.7 428.995L1478.96 399.257L1471.16 401.024ZM1480.39 426.133C1478.42 426.87 1475.52 427.663 1471.58 428.488L1473.22 436.318C1477.32 435.459 1480.68 434.569 1483.2 433.623L1480.39 426.133ZM1471.49 428.507C1467.87 429.348 1463.11 429.805 1457.11 429.805V437.805C1463.45 437.805 1468.88 437.328 1473.3 436.299L1471.49 428.507ZM1457.11 429.805C1448.35 429.805 1439.74 427.926 1431.25 424.123L1427.98 431.424C1437.44 435.664 1447.16 437.805 1457.11 437.805V429.805ZM1431.26 424.13C1423.05 420.41 1416.2 414.75 1410.7 407.07L1404.2 411.727C1410.48 420.505 1418.42 427.096 1427.97 431.418L1431.26 424.13ZM1410.72 407.095C1405.5 399.689 1402.76 390.168 1402.76 378.259H1394.76C1394.76 391.41 1397.8 402.649 1404.18 411.702L1410.72 407.095ZM1402.76 378.259V163.926H1394.76V378.259H1402.76Z" fill="black" mask="url(#path-9-outside-3_3_27)"/>
<mask id="path-11-outside-4_3_27" maskUnits="userSpaceOnUse" x="1167.8" y="205.2" width="177" height="234" fill="black">
<rect fill="white" x="1167.8" y="205.2" width="177" height="234"/>
<path d="M1336.56 261.305L1306.52 269.807C1304.64 264.8 1301.85 259.936 1298.16 255.213C1294.58 250.395 1289.66 246.428 1283.43 243.311C1277.19 240.193 1269.21 238.635 1259.48 238.635C1246.16 238.635 1235.07 241.705 1226.19 247.845C1217.4 253.89 1213.01 261.589 1213.01 270.94C1213.01 279.253 1216.03 285.818 1222.08 290.635C1228.12 295.453 1237.57 299.467 1250.42 302.679L1282.72 310.614C1302.18 315.337 1316.68 322.563 1326.22 332.292C1335.76 341.927 1340.53 354.349 1340.53 369.557C1340.53 382.025 1336.94 393.172 1329.76 402.996C1322.68 412.82 1312.76 420.565 1300.01 426.233C1287.25 431.9 1272.42 434.734 1255.52 434.734C1233.32 434.734 1214.95 429.917 1200.4 420.282C1185.85 410.647 1176.64 396.572 1172.77 378.058L1204.51 370.123C1207.53 381.837 1213.25 390.621 1221.65 396.478C1230.15 402.334 1241.25 405.263 1254.95 405.263C1270.54 405.263 1282.91 401.957 1292.07 395.344C1301.33 388.638 1305.96 380.609 1305.96 371.257C1305.96 363.7 1303.31 357.371 1298.02 352.271C1292.73 347.075 1284.61 343.202 1273.65 340.652L1237.38 332.15C1217.45 327.427 1202.81 320.107 1193.46 310.188C1184.2 300.176 1179.57 287.66 1179.57 272.641C1179.57 260.361 1183.02 249.498 1189.91 240.052C1196.9 230.606 1206.4 223.191 1218.39 217.806C1230.48 212.422 1244.18 209.73 1259.48 209.73C1281.02 209.73 1297.93 214.453 1310.21 223.899C1322.58 233.345 1331.37 245.814 1336.56 261.305Z"/>
</mask>
<path d="M1336.56 261.305L1306.52 269.807C1304.64 264.8 1301.85 259.936 1298.16 255.213C1294.58 250.395 1289.66 246.428 1283.43 243.311C1277.19 240.193 1269.21 238.635 1259.48 238.635C1246.16 238.635 1235.07 241.705 1226.19 247.845C1217.4 253.89 1213.01 261.589 1213.01 270.94C1213.01 279.253 1216.03 285.818 1222.08 290.635C1228.12 295.453 1237.57 299.467 1250.42 302.679L1282.72 310.614C1302.18 315.337 1316.68 322.563 1326.22 332.292C1335.76 341.927 1340.53 354.349 1340.53 369.557C1340.53 382.025 1336.94 393.172 1329.76 402.996C1322.68 412.82 1312.76 420.565 1300.01 426.233C1287.25 431.9 1272.42 434.734 1255.52 434.734C1233.32 434.734 1214.95 429.917 1200.4 420.282C1185.85 410.647 1176.64 396.572 1172.77 378.058L1204.51 370.123C1207.53 381.837 1213.25 390.621 1221.65 396.478C1230.15 402.334 1241.25 405.263 1254.95 405.263C1270.54 405.263 1282.91 401.957 1292.07 395.344C1301.33 388.638 1305.96 380.609 1305.96 371.257C1305.96 363.7 1303.31 357.371 1298.02 352.271C1292.73 347.075 1284.61 343.202 1273.65 340.652L1237.38 332.15C1217.45 327.427 1202.81 320.107 1193.46 310.188C1184.2 300.176 1179.57 287.66 1179.57 272.641C1179.57 260.361 1183.02 249.498 1189.91 240.052C1196.9 230.606 1206.4 223.191 1218.39 217.806C1230.48 212.422 1244.18 209.73 1259.48 209.73C1281.02 209.73 1297.93 214.453 1310.21 223.899C1322.58 233.345 1331.37 245.814 1336.56 261.305Z" fill="black"/>
<path d="M1336.56 261.305L1337.65 265.154L1341.69 264.012L1340.36 260.033L1336.56 261.305ZM1306.52 269.807L1302.78 271.219L1304.08 274.656L1307.61 273.656L1306.52 269.807ZM1298.16 255.213L1294.96 257.603L1294.98 257.638L1295.01 257.673L1298.16 255.213ZM1283.43 243.311L1285.22 239.733L1285.22 239.733L1283.43 243.311ZM1226.19 247.845L1228.45 251.14L1228.46 251.135L1226.19 247.845ZM1222.08 290.635L1219.58 293.763L1219.58 293.763L1222.08 290.635ZM1250.42 302.679L1249.45 306.559L1249.45 306.561L1249.46 306.563L1250.42 302.679ZM1282.72 310.614L1281.77 314.498L1281.78 314.501L1282.72 310.614ZM1326.22 332.292L1323.36 335.093L1323.37 335.1L1323.38 335.107L1326.22 332.292ZM1329.76 402.996L1326.53 400.636L1326.52 400.646L1326.52 400.656L1329.76 402.996ZM1200.4 420.282L1202.61 416.947L1202.61 416.947L1200.4 420.282ZM1172.77 378.058L1171.8 374.178L1168.07 375.111L1168.85 378.877L1172.77 378.058ZM1204.51 370.123L1208.38 369.124L1207.39 365.28L1203.54 366.243L1204.51 370.123ZM1221.65 396.478L1219.37 399.76L1219.37 399.766L1219.38 399.772L1221.65 396.478ZM1292.07 395.344L1294.41 398.588L1294.42 398.584L1292.07 395.344ZM1298.02 352.271L1295.22 355.124L1295.23 355.137L1295.25 355.15L1298.02 352.271ZM1273.65 340.652L1272.74 344.546L1272.75 344.548L1273.65 340.652ZM1237.38 332.15L1236.46 336.043L1236.47 336.045L1237.38 332.15ZM1193.46 310.188L1190.52 312.904L1190.53 312.918L1190.55 312.933L1193.46 310.188ZM1189.91 240.052L1186.7 237.672L1186.69 237.683L1186.68 237.693L1189.91 240.052ZM1218.39 217.806L1216.77 214.152L1216.76 214.157L1218.39 217.806ZM1310.21 223.899L1307.77 227.07L1307.78 227.074L1307.78 227.079L1310.21 223.899ZM1335.47 257.456L1305.44 265.958L1307.61 273.656L1337.65 265.154L1335.47 257.456ZM1310.27 268.394C1308.22 262.969 1305.22 257.756 1301.32 252.752L1295.01 257.673C1298.48 262.116 1301.05 266.631 1302.78 271.219L1310.27 268.394ZM1301.37 252.823C1297.35 247.429 1291.92 243.085 1285.22 239.733L1281.64 246.888C1287.41 249.771 1291.8 253.361 1294.96 257.603L1301.37 252.823ZM1285.22 239.733C1278.25 236.25 1269.6 234.635 1259.48 234.635V242.635C1268.82 242.635 1276.14 244.136 1281.64 246.888L1285.22 239.733ZM1259.48 234.635C1245.54 234.635 1233.6 237.854 1223.91 244.555L1228.46 251.135C1236.53 245.555 1246.79 242.635 1259.48 242.635V234.635ZM1223.92 244.55C1214.23 251.22 1209.01 260.071 1209.01 270.94H1217.01C1217.01 263.106 1220.58 256.56 1228.45 251.14L1223.92 244.55ZM1209.01 270.94C1209.01 280.365 1212.51 288.124 1219.58 293.763L1224.57 287.507C1219.56 283.512 1217.01 278.14 1217.01 270.94H1209.01ZM1219.58 293.763C1226.29 299.106 1236.38 303.294 1249.45 306.559L1251.39 298.798C1238.75 295.64 1229.96 291.799 1224.57 287.507L1219.58 293.763ZM1249.46 306.563L1281.77 314.498L1283.67 306.729L1251.37 298.794L1249.46 306.563ZM1281.78 314.501C1300.83 319.125 1314.54 326.092 1323.36 335.093L1329.08 329.492C1318.82 319.034 1303.53 311.548 1283.66 306.726L1281.78 314.501ZM1323.38 335.107C1332.08 343.899 1336.53 355.263 1336.53 369.557H1344.53C1344.53 353.434 1339.44 339.955 1329.06 329.478L1323.38 335.107ZM1336.53 369.557C1336.53 381.2 1333.2 391.515 1326.53 400.636L1332.99 405.356C1340.68 394.829 1344.53 382.851 1344.53 369.557H1336.53ZM1326.52 400.656C1319.91 409.823 1310.59 417.153 1298.38 422.578L1301.63 429.888C1314.93 423.977 1325.45 415.816 1333.01 405.335L1326.52 400.656ZM1298.38 422.578C1286.24 427.975 1271.98 430.734 1255.52 430.734V438.734C1272.87 438.734 1288.27 435.826 1301.63 429.888L1298.38 422.578ZM1255.52 430.734C1233.89 430.734 1216.34 426.044 1202.61 416.947L1198.19 423.617C1213.55 433.79 1232.75 438.734 1255.52 438.734V430.734ZM1202.61 416.947C1189.02 407.945 1180.36 394.818 1176.68 377.239L1168.85 378.877C1172.92 398.326 1182.69 413.349 1198.19 423.617L1202.61 416.947ZM1173.74 381.939L1205.48 374.004L1203.54 366.243L1171.8 374.178L1173.74 381.939ZM1200.63 371.123C1203.85 383.586 1210.04 393.261 1219.37 399.76L1223.94 393.196C1216.45 387.982 1211.21 380.087 1208.38 369.124L1200.63 371.123ZM1219.38 399.772C1228.74 406.217 1240.7 409.263 1254.95 409.263V401.263C1241.8 401.263 1231.57 398.452 1223.92 393.184L1219.38 399.772ZM1254.95 409.263C1271.06 409.263 1284.35 405.847 1294.41 398.588L1289.73 392.101C1281.47 398.066 1270.01 401.263 1254.95 401.263V409.263ZM1294.42 398.584C1304.45 391.313 1309.96 382.181 1309.96 371.257H1301.96C1301.96 379.036 1298.2 385.963 1289.73 392.105L1294.42 398.584ZM1309.96 371.257C1309.96 362.649 1306.9 355.27 1300.8 349.391L1295.25 355.15C1299.73 359.473 1301.96 364.752 1301.96 371.257H1309.96ZM1300.83 349.417C1294.81 343.506 1285.89 339.393 1274.56 336.756L1272.75 344.548C1283.33 347.011 1290.66 350.645 1295.22 355.124L1300.83 349.417ZM1274.57 336.757L1238.29 328.256L1236.47 336.045L1272.74 344.546L1274.57 336.757ZM1238.3 328.258C1218.77 323.631 1204.98 316.575 1196.37 307.444L1190.55 312.933C1200.64 323.638 1216.12 331.224 1236.46 336.043L1238.3 328.258ZM1196.39 307.473C1187.89 298.277 1183.57 286.764 1183.57 272.641H1175.57C1175.57 288.556 1180.51 302.074 1190.52 312.904L1196.39 307.473ZM1183.57 272.641C1183.57 261.163 1186.77 251.136 1193.14 242.41L1186.68 237.693C1179.26 247.86 1175.57 259.558 1175.57 272.641H1183.57ZM1193.13 242.431C1199.66 233.6 1208.58 226.593 1220.03 221.456L1216.76 214.157C1204.21 219.788 1194.14 227.611 1186.7 237.672L1193.13 242.431ZM1220.02 221.46C1231.53 216.337 1244.65 213.73 1259.48 213.73V205.73C1243.71 205.73 1229.44 208.507 1216.77 214.152L1220.02 221.46ZM1259.48 213.73C1280.48 213.73 1296.42 218.336 1307.77 227.07L1312.65 220.729C1299.44 210.57 1281.56 205.73 1259.48 205.73V213.73ZM1307.78 227.079C1319.49 236.015 1327.82 247.804 1332.77 262.577L1340.36 260.033C1334.92 243.824 1325.68 230.676 1312.64 220.72L1307.78 227.079Z" fill="black" mask="url(#path-11-outside-4_3_27)"/>
<g filter="url(#filter0_d_3_27)">
<mask id="path-13-outside-5_3_27" maskUnits="userSpaceOnUse" x="928.439" y="208.2" width="209" height="227" fill="black">
<rect fill="white" x="928.439" y="208.2" width="209" height="227"/>
<path d="M1131.05 212.473L1050.17 431.2H1015.99L935.11 212.473H971.564L1031.94 386.771H1034.22L1094.6 212.473H1131.05Z"/>
</mask>
<path d="M1131.05 212.473L1050.17 431.2H1015.99L935.11 212.473H971.564L1031.94 386.771H1034.22L1094.6 212.473H1131.05Z" fill="black"/>
<path d="M1131.05 212.473L1134.8 213.86L1136.8 208.473H1131.05V212.473ZM1050.17 431.2V435.2H1052.96L1053.92 432.588L1050.17 431.2ZM1015.99 431.2L1012.24 432.588L1013.21 435.2H1015.99V431.2ZM935.11 212.473V208.473H929.366L931.358 213.86L935.11 212.473ZM971.564 212.473L975.344 211.164L974.412 208.473H971.564V212.473ZM1031.94 386.771L1028.16 388.081L1029.09 390.771H1031.94V386.771ZM1034.22 386.771V390.771H1037.07L1038 388.081L1034.22 386.771ZM1094.6 212.473V208.473H1091.75L1090.82 211.164L1094.6 212.473ZM1127.3 211.086L1046.42 429.813L1053.92 432.588L1134.8 213.86L1127.3 211.086ZM1050.17 427.2H1015.99V435.2H1050.17V427.2ZM1019.75 429.813L938.862 211.086L931.358 213.86L1012.24 432.588L1019.75 429.813ZM935.11 216.473H971.564V208.473H935.11V216.473ZM967.785 213.782L1028.16 388.081L1035.72 385.462L975.344 211.164L967.785 213.782ZM1031.94 390.771H1034.22V382.771H1031.94V390.771ZM1038 388.081L1098.38 213.782L1090.82 211.164L1030.44 385.462L1038 388.081ZM1094.6 216.473H1131.05V208.473H1094.6V216.473Z" fill="black" mask="url(#path-13-outside-5_3_27)"/>
</g>
<mask id="path-15-outside-6_3_27" maskUnits="userSpaceOnUse" x="597.765" y="103" width="48" height="334" fill="black">
<rect fill="white" x="597.765" y="103" width="48" height="334"/>
<path d="M641.498 107.909V433H602.132V107.909H641.498Z"/>
</mask>
<path d="M641.498 107.909V433H602.132V107.909H641.498Z" fill="black"/>
<path d="M641.498 107.909H645.498V103.909H641.498V107.909ZM641.498 433V437H645.498V433H641.498ZM602.132 433H598.132V437H602.132V433ZM602.132 107.909V103.909H598.132V107.909H602.132ZM637.498 107.909V433H645.498V107.909H637.498ZM641.498 429H602.132V437H641.498V429ZM606.132 433V107.909H598.132V433H606.132ZM602.132 111.909H641.498V103.909H602.132V111.909Z" fill="black" mask="url(#path-15-outside-6_3_27)"/>
<mask id="path-17-outside-7_3_27" maskUnits="userSpaceOnUse" x="708.986" y="202.4" width="184" height="233" fill="black">
<rect fill="white" x="708.986" y="202.4" width="184" height="233"/>
<path d="M747.154 298.181V431.4H713.128V209.945H746.001V244.548H748.884C754.074 233.302 761.956 224.267 772.529 217.443C783.102 210.522 796.751 207.062 813.475 207.062C828.469 207.062 841.589 210.138 852.835 216.289C864.081 222.345 872.827 231.572 879.075 243.971C885.323 256.274 888.447 271.845 888.447 290.684V431.4H854.421V292.991C854.421 275.594 849.903 262.041 840.868 252.333C831.833 242.529 819.434 237.627 803.671 237.627C792.81 237.627 783.102 239.982 774.547 244.692C766.089 249.402 759.409 256.274 754.507 265.309C749.605 274.344 747.154 285.301 747.154 298.181Z"/>
</mask>
<path d="M747.154 298.181V431.4H713.128V209.945H746.001V244.548H748.884C754.074 233.302 761.956 224.267 772.529 217.443C783.102 210.522 796.751 207.062 813.475 207.062C828.469 207.062 841.589 210.138 852.835 216.289C864.081 222.345 872.827 231.572 879.075 243.971C885.323 256.274 888.447 271.845 888.447 290.684V431.4H854.421V292.991C854.421 275.594 849.903 262.041 840.868 252.333C831.833 242.529 819.434 237.627 803.671 237.627C792.81 237.627 783.102 239.982 774.547 244.692C766.089 249.402 759.409 256.274 754.507 265.309C749.605 274.344 747.154 285.301 747.154 298.181Z" fill="black"/>
<path d="M747.154 431.4V435.4H751.154V431.4H747.154ZM713.128 431.4H709.128V435.4H713.128V431.4ZM713.128 209.945V205.945H709.128V209.945H713.128ZM746.001 209.945H750.001V205.945H746.001V209.945ZM746.001 244.548H742.001V248.548H746.001V244.548ZM748.884 244.548V248.548H751.443L752.516 246.224L748.884 244.548ZM772.529 217.443L774.698 220.803L774.709 220.796L774.72 220.789L772.529 217.443ZM852.835 216.289L850.915 219.798L850.927 219.805L850.939 219.811L852.835 216.289ZM879.075 243.971L875.503 245.771L875.509 245.782L879.075 243.971ZM888.447 431.4V435.4H892.447V431.4H888.447ZM854.421 431.4H850.421V435.4H854.421V431.4ZM840.868 252.333L837.927 255.044L837.934 255.051L837.94 255.058L840.868 252.333ZM774.547 244.692L772.618 241.188L772.61 241.192L772.601 241.197L774.547 244.692ZM754.507 265.309L750.991 263.401L754.507 265.309ZM743.154 298.181V431.4H751.154V298.181H743.154ZM747.154 427.4H713.128V435.4H747.154V427.4ZM717.128 431.4V209.945H709.128V431.4H717.128ZM713.128 213.945H746.001V205.945H713.128V213.945ZM742.001 209.945V244.548H750.001V209.945H742.001ZM746.001 248.548H748.884V240.548H746.001V248.548ZM752.516 246.224C757.383 235.679 764.752 227.223 774.698 220.803L770.36 214.082C759.16 221.311 750.766 230.925 745.252 242.871L752.516 246.224ZM774.72 220.789C784.462 214.413 797.282 211.062 813.475 211.062V203.062C796.219 203.062 781.742 206.631 770.338 214.096L774.72 220.789ZM813.475 211.062C827.913 211.062 840.351 214.02 850.915 219.798L854.755 212.78C842.828 206.256 829.026 203.062 813.475 203.062V211.062ZM850.939 219.811C861.399 225.444 869.591 234.037 875.503 245.771L882.647 242.171C876.064 229.107 866.762 219.245 854.731 212.767L850.939 219.811ZM875.509 245.782C881.387 257.357 884.447 272.256 884.447 290.684H892.447C892.447 271.434 889.259 255.191 882.642 242.16L875.509 245.782ZM884.447 290.684V431.4H892.447V290.684H884.447ZM888.447 427.4H854.421V435.4H888.447V427.4ZM858.421 431.4V292.991H850.421V431.4H858.421ZM858.421 292.991C858.421 274.906 853.713 260.263 843.797 249.608L837.94 255.058C846.094 263.819 850.421 276.281 850.421 292.991H858.421ZM843.81 249.622C833.879 238.846 820.33 233.627 803.671 233.627V241.627C818.539 241.627 829.788 246.212 837.927 255.044L843.81 249.622ZM803.671 233.627C792.212 233.627 781.828 236.117 772.618 241.188L776.477 248.196C784.376 243.847 793.407 241.627 803.671 241.627V233.627ZM772.601 241.197C763.438 246.299 756.232 253.742 750.991 263.401L758.023 267.217C762.586 258.806 768.74 252.504 776.493 248.187L772.601 241.197ZM750.991 263.401C745.701 273.152 743.154 284.801 743.154 298.181H751.154C751.154 285.802 753.509 275.536 758.023 267.217L750.991 263.401Z" fill="black" mask="url(#path-17-outside-7_3_27)"/>
<path d="M1986.32 123.069L2066.01 251.656H2068.42L2148.11 123.069H2192.18L2094.98 277.615L2192.18 432.16H2148.11L2068.42 305.988H2066.01L1986.32 432.16H1942.25L2041.86 277.615L1942.25 123.069H1986.32Z" fill="black"/>
<defs>
<filter id="filter0_d_3_27" x="931.11" y="212.473" width="203.943" height="226.727" filterUnits="userSpaceOnUse" color-interpolation-filters="sRGB">
<feFlood flood-opacity="0" result="BackgroundImageFix"/>
<feColorMatrix in="SourceAlpha" type="matrix" values="0 0 0 0 0 0 0 0 0 0 0 0 0 0 0 0 0 0 127 0" result="hardAlpha"/>
<feOffset dy="4"/>
<feGaussianBlur stdDeviation="2"/>
<feComposite in2="hardAlpha" operator="out"/>
<feColorMatrix type="matrix" values="0 0 0 0 0 0 0 0 0 0 0 0 0 0 0 0 0 0 0.25 0"/>
<feBlend mode="normal" in2="BackgroundImageFix" result="effect1_dropShadow_3_27"/>
<feBlend mode="normal" in="SourceGraphic" in2="effect1_dropShadow_3_27" result="shape"/>
</filter>
</defs>
</svg>
